<svg width="34" height="34" viewBox="0 0 34 34" fill="none" xmlns="http://www.w3.org/2000/svg">
<path d="M17 32.3756C17.5949 32.3619 18.1658 32.1382 18.6118 31.7441C19.0577 31.35 19.3499 30.811 19.4366 30.2222H14.4689C14.5581 30.827 14.864 31.3787 15.3295 31.7748C15.7951 32.1709 16.3888 32.3844 17 32.3756Z" fill="white"/>
<path d="M31.025 26.5672L30.7039 26.2839C29.7929 25.4722 28.9955 24.5414 28.3333 23.5167C27.6101 22.1024 27.1766 20.5579 27.0583 18.9739V14.3083C27.0545 13.7416 27.004 13.1762 26.9072 12.6178C25.3074 12.289 23.8704 11.4174 22.8395 10.1507C21.8086 8.88396 21.247 7.29989 21.25 5.66667V5.07167C20.2639 4.5864 19.2045 4.2673 18.1144 4.12722V2.93722C18.1144 2.60283 17.9816 2.28213 17.7452 2.04568C17.5087 1.80923 17.188 1.67639 16.8536 1.67639C16.5192 1.67639 16.1985 1.80923 15.9621 2.04568C15.7256 2.28213 15.5928 2.60283 15.5928 2.93722V4.17445C13.1521 4.51875 10.9183 5.73443 9.30393 7.59705C7.68954 9.45967 6.80352 11.8435 6.80944 14.3083V18.9739C6.69116 20.5579 6.25768 22.1024 5.53444 23.5167C4.88361 24.5389 4.09907 25.4695 3.20167 26.2839L2.88055 26.5672V29.2306H31.025V26.5672Z" fill="white"/>
<path d="M28.3333 10.3889C30.9413 10.3889 33.0555 8.27469 33.0555 5.66668C33.0555 3.05867 30.9413 0.944458 28.3333 0.944458C25.7253 0.944458 23.6111 3.05867 23.6111 5.66668C23.6111 8.27469 25.7253 10.3889 28.3333 10.3889Z" fill="white"/>
</svg>
