<?xml version="1.0" standalone="no"?>
<!DOCTYPE svg PUBLIC "-//W3C//DTD SVG 20010904//EN"
 "http://www.w3.org/TR/2001/REC-SVG-20010904/DTD/svg10.dtd">
<svg version="1.0" xmlns="http://www.w3.org/2000/svg"
 width="300.000000pt" height="291.000000pt" viewBox="0 0 300.000000 291.000000"
 preserveAspectRatio="xMidYMid meet">
<metadata>
Created by potrace 1.16, written by Peter Selinger 2001-2019
</metadata>
<g transform="translate(0.000000,291.000000) scale(0.100000,-0.100000)"
fill="#000000" stroke="none">
<path d="M690 2900 c-176 -5 -202 -9 -265 -32 -217 -79 -358 -202 -405 -355
-41 -132 -17 -357 54 -504 50 -105 315 -388 564 -603 l103 -89 45 18 c69 26
125 74 157 135 27 52 29 60 24 150 -8 149 -11 156 -166 315 -167 171 -205 234
-206 337 0 74 13 99 77 150 l35 29 259 6 c256 6 259 5 287 -16 35 -29 34 -47
-3 -66 -23 -12 -70 -15 -240 -15 -224 0 -258 -6 -307 -52 -25 -24 -39 -75 -28
-108 9 -30 62 -88 96 -106 24 -12 176 -14 1044 -14 l1015 0 0 363 c0 199 -3
386 -6 415 l-7 52 -966 -2 c-531 -1 -1054 -5 -1161 -8z m2082 -400 l3 -360
-988 0 c-913 0 -990 1 -1014 17 -34 23 -54 70 -41 99 18 39 48 44 274 44 233
0 262 5 309 56 14 15 25 37 25 49 0 31 -35 72 -81 96 -38 19 -52 20 -302 13
l-262 -7 -43 -29 c-89 -61 -133 -160 -112 -252 24 -106 72 -177 242 -351 98
-101 108 -116 123 -170 37 -143 -1 -251 -108 -306 -22 -12 -43 -16 -51 -12
-67 38 -455 419 -558 548 -66 82 -110 196 -130 330 -37 261 81 435 373 547
l84 33 740 5 c407 3 914 6 1127 8 l388 2 2 -360z"/>
<path d="M1240 1760 l0 -250 190 0 190 0 0 50 0 50 -137 0 -138 0 0 60 0 60
123 0 122 0 0 45 0 45 -122 0 -123 0 0 50 0 50 133 0 132 0 0 45 0 45 -185 0
-185 0 0 -250z"/>
<path d="M2182 1559 c-66 -33 -116 -86 -138 -147 -18 -52 -17 -165 3 -236 15
-55 27 -70 153 -201 109 -112 144 -156 173 -214 57 -113 49 -189 -27 -261 -35
-33 -41 -35 -129 -42 -51 -3 -171 -7 -268 -7 -164 -1 -178 0 -203 20 -34 27
-33 45 4 64 23 12 70 15 236 15 234 0 270 7 316 58 26 31 30 41 25 79 -3 33
-14 54 -38 80 -66 68 14 63 -1104 63 l-1015 0 0 -317 c0 -175 3 -362 7 -417
l6 -98 1146 4 1146 5 80 27 c229 78 368 197 425 361 25 73 28 241 5 330 -34
136 -64 199 -137 290 -120 152 -559 575 -595 575 -5 0 -37 -14 -71 -31z m186
-131 c141 -125 336 -322 431 -438 60 -72 75 -98 101 -175 58 -176 64 -311 19
-430 -17 -47 -38 -76 -93 -130 -80 -80 -151 -120 -282 -163 l-89 -30 -1112 -6
-1113 -7 -2 361 -3 360 988 0 c901 0 990 -1 1013 -16 32 -22 54 -65 47 -93
-12 -45 -46 -51 -277 -51 -127 0 -226 -4 -243 -11 -40 -15 -93 -69 -93 -95 0
-30 35 -71 82 -95 37 -19 50 -20 302 -13 l263 7 47 34 c100 72 133 169 97 279
-32 97 -80 165 -218 305 l-123 126 -17 77 c-19 90 -10 164 28 217 21 30 103
89 122 89 5 0 62 -46 125 -102z"/>
<path d="M980 1171 l0 -251 50 0 50 0 0 89 0 89 90 4 c97 4 123 16 164 72 29
39 29 133 0 172 -44 60 -60 65 -213 71 l-141 6 0 -252z m250 129 c24 -24 25
-48 4 -78 -13 -19 -24 -22 -85 -22 l-69 0 0 60 0 60 65 0 c52 0 69 -4 85 -20z"/>
<path d="M1539 1397 c-182 -96 -163 -406 29 -472 87 -29 198 -14 278 38 l34
22 0 103 0 102 -110 0 -110 0 0 -45 0 -45 55 0 c54 0 55 0 55 -30 0 -37 -43
-62 -111 -63 -78 -1 -125 45 -129 128 -5 97 -1 114 34 153 32 34 39 37 89 37
45 0 60 -5 81 -24 14 -14 26 -30 26 -38 0 -16 -3 -16 60 -2 48 10 51 13 45 36
-10 41 -46 82 -90 103 -61 30 -177 28 -236 -3z"/>
</g>
</svg>
